<svg xmlns="http://www.w3.org/2000/svg" width="24.819" height="24.796" viewBox="0 0 24.819 24.796">
  <g id="Group_11485" data-name="Group 11485" transform="translate(652.331 6972.9)">
    <path id="Path_256" data-name="Path 256" d="M290.024,224.577a4.551,4.551,0,1,0-2.218-8.523l-6.371-6.371h5.279V207.2h-8.274a1.241,1.241,0,0,0-1.241,1.241v8.274h2.482v-5.279l6.371,6.371h0a4.551,4.551,0,0,0,3.972,6.768Zm0-6.62h0a2.068,2.068,0,1,1-1.463.606,2.068,2.068,0,0,1,1.463-.606Z" transform="translate(-922.51 -7173.082)" fill="#564299" stroke="#fff" stroke-width="0.8"/>
    <path id="Path_257" data-name="Path 257" d="M209.941,128.77v-6.62a4.551,4.551,0,0,0-4.551-4.551H192.151a4.55,4.55,0,0,0-4.551,4.551V135.39a4.551,4.551,0,0,0,4.551,4.551h6.62v-2.482h-6.62a2.069,2.069,0,0,1-2.069-2.069V122.151a2.069,2.069,0,0,1,2.069-2.069H205.39a2.069,2.069,0,0,1,2.069,2.069v6.62Z" transform="translate(-839.531 -7090.1)" fill="#564299" stroke="#fff" stroke-width="0.8"/>
  </g>
</svg>
