<svg xmlns="http://www.w3.org/2000/svg" width="26.604" height="24" viewBox="0 0 26.604 24">
  <g id="Group_11488" data-name="Group 11488" transform="translate(741.217 7366.001)">
    <path id="Path_269" data-name="Path 269" d="M285.53,150.01a.562.562,0,0,0,.4.188h.017a.564.564,0,0,0,.4-.166l3.344-3.344a.562.562,0,1,0-.8-.8l-2.922,2.919-1.357-1.537h0a.562.562,0,1,0-.843.744Z" transform="translate(-1014.877 -7506.468)" fill="#fff"/>
    <path id="Path_270" data-name="Path 270" d="M91.353,61.285h-.517a3,3,0,1,0,0,1.124h.517A2.248,2.248,0,0,0,93.6,60.161V55h4.027v3.911a3,3,0,1,0,1.124,0V55h4.027v5.165a2.248,2.248,0,0,0,2.248,2.248h.517a3,3,0,1,0,0-1.124h-.517a1.124,1.124,0,0,1-1.124-1.124V54.856a4.777,4.777,0,0,0,1.368-8.724v-.146h0a5.125,5.125,0,0,0-9.006-3.352,3.71,3.71,0,0,0-1.146-.174,3.773,3.773,0,0,0-3.731,3.315,4.777,4.777,0,0,0,1.09,9.171v5.215a1.124,1.124,0,0,1-1.124,1.124Zm-3.465,2.447a1.88,1.88,0,1,1,1.326-.556,1.878,1.878,0,0,1-1.326.556Zm20.6-3.754a1.88,1.88,0,1,1-1.32.55,1.876,1.876,0,0,1,1.32-.55Zm-8.424,1.868a1.88,1.88,0,1,1-.554-1.321,1.877,1.877,0,0,1,.554,1.321ZM89.512,50.208a3.653,3.653,0,0,1,2.577-3.5.562.562,0,0,0,.4-.531,2.645,2.645,0,0,1,2.633-2.6,2.61,2.61,0,0,1,1.1.242.562.562,0,0,0,.688-.18,4,4,0,0,1,7.247,2.346,2.8,2.8,0,0,1-.019.408h0a.562.562,0,0,0,.3.562,3.653,3.653,0,0,1-1.663,6.912H93.176a3.667,3.667,0,0,1-3.664-3.664Z" transform="translate(-826.104 -7406.857)" fill="#fff"/>
  </g>
</svg>
