<svg xmlns="http://www.w3.org/2000/svg" width="24" height="24" viewBox="0 0 24 24">
  <g id="Group_11487" data-name="Group 11487" transform="translate(770.447 7490.484)">
    <path id="Path_266" data-name="Path 266" d="M141.063,67.029l.871.5.025-.05a10.077,10.077,0,0,0-8.116-15.959,10.071,10.071,0,0,0-.025,20.141,9.16,9.16,0,0,0,2.764-.4l.05-.025-.2-1-.075.025a9.2,9.2,0,0,1-2.589.4,9.011,9.011,0,1,1,7.295-3.685Z" transform="translate(-892.265 -7540.161)" fill="#fff"/>
    <path id="Path_267" data-name="Path 267" d="M100.6,13.614a11.882,11.882,0,0,0-8.49-3.535,11.377,11.377,0,0,0-3.212.448l-.05.025.174.921.075-.025a11.423,11.423,0,0,1,3.013-.423A11.066,11.066,0,1,1,81.03,22.054a10.932,10.932,0,0,1,2.042-6.4l.05-.05-.822-.473-.025.05A11.791,11.791,0,0,0,80.084,22.1a12,12,0,1,0,20.515-8.49Z" transform="translate(-850.531 -7500.563)" fill="#fff"/>
    <path id="Path_268" data-name="Path 268" d="M243.774,201.773l-1.295,1.295,3.56,3.56,5.975-5.975-1.295-1.295-4.681,4.681Z" transform="translate(-1005.707 -7681.427)" fill="#fff"/>
  </g>
</svg>
