<svg xmlns="http://www.w3.org/2000/svg" width="16" height="16" viewBox="0 0 16 16">
  <g id="Group_11614" data-name="Group 11614" transform="translate(-176 -315)">
    <g id="noun-text-3895414" transform="translate(59.332 268.332)">
      <path id="Path_4602" data-name="Path 4602" d="M131.868,46.668h-14.4a.8.8,0,0,0-.8.8v14.4a.8.8,0,0,0,.8.8h14.4a.8.8,0,0,0,.8-.8v-14.4a.8.8,0,0,0-.8-.8Zm-.8,14.4h-12.8v-12.8h12.8Z"/>
    </g>
    <g id="Group_11613" data-name="Group 11613" transform="translate(-136.701 -4.034)">
      <path id="Path_4604" data-name="Path 4604" d="M446.667-1009.061a.65.65,0,0,0-.058-.238.679.679,0,0,0-.086-.123c-.006,0-.01,0-.01-.008a.626.626,0,0,0-.384-.2.618.618,0,0,0-.423.1.68.68,0,0,0-.288.438l-.307,1.929h-2.6l.278-1.783a.593.593,0,0,0-.154-.476.684.684,0,0,0-.384-.2.655.655,0,0,0-.423.108.675.675,0,0,0-.288.43l-.3,1.921h-1.546a.79.79,0,0,0-.519.177.5.5,0,0,0-.183.369.455.455,0,0,0,.144.369.787.787,0,0,0,.509.215h1.431l-.259,1.729H439.2a.777.777,0,0,0-.509.184.562.562,0,0,0-.192.361.548.548,0,0,0,.163.376.829.829,0,0,0,.5.215h1.479l-.3,1.944a.63.63,0,0,0,.192.422.6.6,0,0,0,.355.161.615.615,0,0,0,.394-.092.691.691,0,0,0,.307-.354l.326-2.082h2.6l-.288,1.944a.654.654,0,0,0,.182.422.605.605,0,0,0,.365.161.6.6,0,0,0,.384-.092.638.638,0,0,0,.307-.353l.317-2.082h1.892a.926.926,0,0,0,.452-.215.55.55,0,0,0,.154-.338.494.494,0,0,0-.125-.338.906.906,0,0,0-.432-.246h-1.767l.259-1.721v-.008H448.1a.8.8,0,0,0,.451-.215.5.5,0,0,0,.163-.33.455.455,0,0,0-.135-.33.819.819,0,0,0-.432-.254h-1.758l.279-1.79v-.108m-4.332,3.028h2.6l-.24,1.729h-2.6l.24-1.729" transform="translate(-122.801 1332.669)"/>
    </g>
  </g>
</svg>
