<svg xmlns="http://www.w3.org/2000/svg" width="23.999" height="24" viewBox="0 0 23.999 24">
  <g id="Group_11648" data-name="Group 11648" transform="translate(-13337.469 6455)">
    <path id="Path_4605" data-name="Path 4605" d="M248,210h-9.333a.66.66,0,0,0-.667.667V216a.66.66,0,0,0,.667.667H248a.66.66,0,0,0,.667-.667v-5.333A.66.66,0,0,0,248,210Zm-.667,5.333h-8v-4h8Z" transform="translate(13106.135 -6656.333)" fill="#a7a7a7"/>
    <path id="Path_4606" data-name="Path 4606" d="M100,49.334h1.733l-.853.853a.66.66,0,1,0,.933.933l2-2a.644.644,0,0,0,0-.933l-2-2a.66.66,0,1,0-.933.933l.853.88H100a.66.66,0,0,1-.667-.667V32.668A.66.66,0,0,1,100,32h4.667v2a.66.66,0,0,0,.667.667h9.333a.66.66,0,0,0,.667-.667V28.668a.66.66,0,0,0-.667-.667h-9.333a.66.66,0,0,0-.667.667v2H100a2.015,2.015,0,0,0-2,2V47.334a2.015,2.015,0,0,0,2,2Zm14-16h-8v-4h8Z" transform="translate(13239.469 -6483.001)" fill="#a7a7a7"/>
    <path id="Path_4607" data-name="Path 4607" d="M253.333,226.262H251.6l.853-.853a.66.66,0,0,0-.933-.933l-2,2a.644.644,0,0,0,0,.933l2,2a.66.66,0,1,0,.933-.933l-.853-.88h1.733a.66.66,0,0,1,.667.667v6.667a.66.66,0,0,1-.667.667h-4.667v-2.667a.66.66,0,0,0-.667-.667h-9.333a.66.66,0,0,0-.667.667v5.333a.66.66,0,0,0,.667.667H248a.66.66,0,0,0,.667-.667v-1.333h4.667a2.014,2.014,0,0,0,2-2v-6.667a2.014,2.014,0,0,0-2-2Zm-14,7.333h8v4h-8Z" transform="translate(13106.135 -6669.929)" fill="#a7a7a7"/>
  </g>
</svg>
