<svg xmlns="http://www.w3.org/2000/svg" width="16" height="16" viewBox="0 0 16 16">
  <g id="noun-text-3895414" transform="translate(-116.668 -46.668)">
    <path id="Path_4602" data-name="Path 4602" d="M131.868,46.668h-14.4a.8.8,0,0,0-.8.8v14.4a.8.8,0,0,0,.8.8h14.4a.8.8,0,0,0,.8-.8v-14.4a.8.8,0,0,0-.8-.8Zm-.8,14.4h-12.8v-12.8h12.8Z"/>
    <path id="Path_4603" data-name="Path 4603" d="M210.794,142.406a.8.8,0,0,0,.8-.8h2.4v6.4h-.8a.8.8,0,0,0,0,1.6h3.2a.8.8,0,0,0,0-1.6h-.8v-6.4h2.4a.8.8,0,0,0,1.6,0v-.8a.8.8,0,0,0-.8-.8h-8a.8.8,0,0,0-.8.8v.8a.8.8,0,0,0,.8.8Z" transform="translate(-90.126 -90.138)"/>
  </g>
</svg>
